<svg id="Layer_1" data-name="Layer 1" xmlns="http://www.w3.org/2000/svg" width="216.23" height="216.23"
  viewBox="0 0 216.23 216.23">
  <defs>
    <style>
      .cls-1 {
        fill: #03a062;
      }
    </style>
  </defs>
  <g>
    <path class="cls-1"
      d="M108.26,157.87c-4.58,0-7-2.44-13.27-2.44a24.07,24.07,0,0,0-7.32,1.68l1.67,4.57A15.24,15.24,0,0,1,95,160.31c4.42,0,6.71,2.44,13.27,2.44s8.85-2.44,13.12-2.44a15.16,15.16,0,0,1,5.64,1.37l1.68-4.57a23.17,23.17,0,0,0-7.32-1.68C115.12,155.43,112.84,157.87,108.26,157.87Z" />
    <path class="cls-1"
      d="M96.21,166.11,95.14,171a68.94,68.94,0,0,0,26.24,0l-1.07-4.88A58.59,58.59,0,0,1,96.21,166.11Z" />
    <path class="cls-1"
      d="M108.12-.52A108.12,108.12,0,1,0,216.23,107.6,108.12,108.12,0,0,0,108.12-.52ZM32.6,128.28,31.38,87.55H41l.91,40.73Zm81.3,59.49H102.62c-8.55,0-17.24-6-24.56-12.82l-.16-14.34L64.17,143.68V121L84,144l24.25-28.38L132.51,144l19.83-22.88v22.72l-13.88,16.94.16,14.18C131.29,181.82,122.45,187.77,113.9,187.77ZM171,87.55l-1.06,40.73-.16,9.15c-.3,20-14.94,39.51-26.54,46.83v-22l13.88-16.93V83.43l-24.71,29.29-24.1-29.29-24.1,29.29L59.45,83.43v62.08l13.72,16.78v22c-11.59-7.48-26.08-26.85-26.38-46.83l-.16-9.15L45.56,87.55v-.46c0-34.48,28.23-60.87,62.7-60.87S171,52.61,171,87.09Zm13,40.73h-9.3l.91-40.73h9.61Z" />
  </g>
</svg>